<svg width="17" height="17" viewBox="0 0 17 17" fill="none" xmlns="http://www.w3.org/2000/svg">
<path d="M14.0679 2.17871H2.56787C2.29131 2.17871 2.06787 2.40215 2.06787 2.67871V14.1787C2.06787 14.4553 2.29131 14.6787 2.56787 14.6787H14.0679C14.3444 14.6787 14.5679 14.4553 14.5679 14.1787V2.67871C14.5679 2.40215 14.3444 2.17871 14.0679 2.17871ZM12.6241 5.82715H11.6257C10.8429 5.82715 10.6913 6.19902 10.6913 6.7459V7.95059H12.5601L12.3163 9.83652H10.6913V14.6787H8.74287V9.83809H7.11318V7.95059H8.74287V6.55996C8.74287 4.9459 9.72881 4.06621 11.1694 4.06621C11.8601 4.06621 12.4522 4.11777 12.6257 4.14121V5.82715H12.6241Z" fill="#1A202C"/>
</svg>
