<svg width="115" height="115" viewBox="0 0 115 115" fill="none" xmlns="http://www.w3.org/2000/svg">
<rect x="0.0877686" y="0.928711" width="114" height="114" rx="57" fill="white"/>
<path d="M57.4782 65.9762C56.6377 65.9784 55.8058 65.8076 55.0342 65.4743L47.9624 62.4263V70.3716C47.9644 70.561 48.0242 70.7453 48.1338 70.8997C48.2434 71.0542 48.3976 71.1715 48.5757 71.2358L49.1519 71.4496C56.0006 73.9121 58.9929 73.9121 65.8788 71.4496L66.4549 71.2358C66.6313 71.1699 66.7835 71.052 66.8914 70.8977C66.9993 70.7434 67.0577 70.5599 67.059 70.3716V62.4077L59.95 65.4743C59.1696 65.8106 58.3279 65.9814 57.4782 65.9762Z" fill="#86878B"/>
<path d="M76.2959 55.615L59.8106 49.2774C59.2829 49.0739 58.7221 48.9699 58.1565 48.9707C57.6276 48.9716 57.1028 49.0627 56.6046 49.2402L38.7161 55.6336C38.6044 55.6754 38.5082 55.7503 38.4403 55.8483C38.3723 55.9462 38.3359 56.0626 38.3359 56.1818C38.3359 56.3011 38.3723 56.4175 38.4403 56.5154C38.5082 56.6134 38.6044 56.6883 38.7161 56.7301L55.6196 64.0435C56.2063 64.297 56.839 64.4267 57.4781 64.4245C58.1175 64.4288 58.7506 64.299 59.3367 64.0435L71.8818 58.6258V67.2774C71.9072 67.5544 72.0352 67.8119 72.2406 67.9994C72.4461 68.1869 72.7142 68.2908 72.9923 68.2908C73.2705 68.2908 73.5386 68.1869 73.744 67.9994C73.9495 67.8119 74.0774 67.5544 74.1028 67.2774V57.6687L76.3238 56.7394C76.4398 56.6962 76.5395 56.6179 76.609 56.5153C76.6784 56.4128 76.714 56.2911 76.711 56.1673C76.7079 56.0434 76.6662 55.9237 76.5918 55.8247C76.5174 55.7257 76.414 55.6524 76.2959 55.615Z" fill="#86878B"/>
<path d="M37.9634 75.7154C34.5623 71.4884 32.6183 66.2753 32.4214 60.8534C32.2244 55.4315 33.785 50.0912 36.8706 45.6285C39.9561 41.1659 44.4012 37.8199 49.5433 36.0896C54.6854 34.3591 60.2491 34.3369 65.4049 36.0262C65.2327 35.4566 65.1451 34.8649 65.1447 34.2699C65.1454 33.6393 65.2426 33.0125 65.4327 32.4113C59.5905 30.7299 53.3647 30.9517 47.657 33.0447C41.9493 35.1377 37.0559 38.9931 33.6856 44.0527C30.3153 49.1123 28.643 55.1134 28.9109 61.1869C29.1788 67.2604 31.3729 73.0909 35.1756 77.8341C36.237 77.3211 37.185 76.6007 37.9634 75.7154Z" fill="#86878B"/>
<path d="M79.3906 41.4902C79.2215 42.6535 78.7105 43.7404 77.9223 44.6126L77.6528 44.8913C81.069 49.4957 82.8098 55.1289 82.5869 60.8578C82.3641 66.5867 80.191 72.0676 76.4275 76.3927C72.664 80.7178 67.5361 83.6276 61.8929 84.6401C56.2498 85.6526 50.4301 84.707 45.3978 81.96C44.4062 82.6386 43.583 83.535 42.991 84.5806C48.8102 87.9922 55.6474 89.2388 62.2963 88.1005C68.9451 86.9622 74.9782 83.5122 79.3312 78.3591C83.6841 73.206 86.0772 66.681 86.088 59.9355C86.0989 53.1899 83.7269 46.6573 79.3906 41.4902Z" fill="#86878B"/>
<path d="M45.6485 79.9992C45.7032 79.9785 45.7504 79.9416 45.7836 79.8935C45.8169 79.8453 45.8347 79.7882 45.8347 79.7297C45.8347 79.6711 45.8169 79.614 45.7836 79.5659C45.7504 79.5177 45.7032 79.4809 45.6485 79.4602C43.4612 78.4756 41.735 76.6895 40.8255 74.47C40.8026 74.4202 40.7659 74.3781 40.7198 74.3485C40.6737 74.3188 40.6201 74.303 40.5653 74.3027C40.5072 74.3039 40.4506 74.3222 40.4027 74.3552C40.3548 74.3883 40.3177 74.4346 40.2959 74.4886C39.3218 76.7458 37.5142 78.54 35.2499 79.4974C35.2007 79.5207 35.1591 79.5576 35.13 79.6037C35.1009 79.6497 35.0854 79.7031 35.0854 79.7575C35.0854 79.812 35.1009 79.8654 35.13 79.9115C35.1591 79.9575 35.2007 79.9944 35.2499 80.0177C36.3834 80.4756 37.4133 81.1566 38.2785 82.0202C39.1437 82.8838 39.8266 83.9125 40.2866 85.0451C40.3077 85.0988 40.3449 85.1446 40.3932 85.1763C40.4415 85.2079 40.4984 85.2238 40.556 85.2217C40.609 85.224 40.6614 85.2101 40.7062 85.1819C40.751 85.1537 40.7862 85.1124 40.807 85.0637C41.7115 82.817 43.4448 81.0039 45.6485 79.9992Z" fill="#86878B"/>
<path d="M71.5069 35.7425C71.2849 35.2985 71.0779 34.8695 70.8859 34.4555C70.6939 34.0415 70.5109 33.6395 70.3369 33.2495L70.2829 33.2585C70.3129 33.8705 70.3429 34.5755 70.3729 35.3735C70.4089 36.1655 70.4269 36.8915 70.4269 37.5515V43.4285C70.2709 43.4525 70.1209 43.4705 69.9769 43.4825C69.8389 43.4945 69.7099 43.5005 69.5899 43.5005C69.4759 43.5005 69.3439 43.4945 69.1939 43.4825C69.0439 43.4705 68.8969 43.4525 68.7529 43.4285V31.1525C68.8969 31.1225 69.0739 31.1015 69.2839 31.0895C69.4999 31.0715 69.6769 31.0625 69.8149 31.0625C69.9709 31.0625 70.1479 31.0685 70.3459 31.0805C70.5439 31.0925 70.7299 31.1105 70.9039 31.1345L74.8279 38.8115C75.0619 39.2795 75.2779 39.7355 75.4759 40.1795C75.6799 40.6175 75.8719 41.0255 76.0519 41.4035L76.1059 41.3945C76.0639 40.6865 76.0279 39.9275 75.9979 39.1175C75.9739 38.3015 75.9619 37.5815 75.9619 36.9575V32.1875C75.9619 31.7915 76.0279 31.5065 76.1599 31.3325C76.2979 31.1525 76.5529 31.0625 76.9249 31.0625H77.5189L77.6269 31.1615V43.4105C77.4829 43.4405 77.3089 43.4615 77.1049 43.4735C76.9069 43.4915 76.7179 43.5005 76.5379 43.5005C76.3639 43.5005 76.1839 43.4945 75.9979 43.4825C75.8119 43.4705 75.6319 43.4525 75.4579 43.4285L71.5069 35.7425Z" fill="#86878B"/>
<path d="M66.0879 36.4287H80.0879" stroke="#86878B" stroke-width="2"/>
<path d="M66.0879 39.4287H80.0879" stroke="#86878B" stroke-width="2"/>
</svg>
