<svg width="33" height="33" viewBox="0 0 33 33" fill="none" xmlns="http://www.w3.org/2000/svg">
<path d="M16.3178 10.2101C12.7709 10.2101 9.9084 13.0726 9.9084 16.6195C9.9084 20.1664 12.7709 23.0289 16.3178 23.0289C19.8647 23.0289 22.7271 20.1664 22.7271 16.6195C22.7271 13.0726 19.8647 10.2101 16.3178 10.2101ZM16.3178 20.7851C14.024 20.7851 12.1522 18.9132 12.1522 16.6195C12.1522 14.3257 14.024 12.4539 16.3178 12.4539C18.6115 12.4539 20.4834 14.3257 20.4834 16.6195C20.4834 18.9132 18.6115 20.7851 16.3178 20.7851ZM22.9897 8.45386C22.1615 8.45386 21.4928 9.12261 21.4928 9.95073C21.4928 10.7789 22.1615 11.4476 22.9897 11.4476C23.8178 11.4476 24.4865 10.782 24.4865 9.95073C24.4868 9.75409 24.4482 9.55933 24.3731 9.37761C24.2979 9.19589 24.1877 9.03078 24.0487 8.89173C23.9096 8.75269 23.7445 8.64244 23.5628 8.5673C23.3811 8.49216 23.1863 8.45361 22.9897 8.45386ZM28.8115 16.6195C28.8115 14.8945 28.8272 13.1851 28.7303 11.4632C28.6334 9.46323 28.1772 7.68823 26.7147 6.22573C25.249 4.76011 23.4771 4.30698 21.4771 4.21011C19.7521 4.11323 18.0428 4.12886 16.3209 4.12886C14.5959 4.12886 12.8865 4.11323 11.1647 4.21011C9.16465 4.30698 7.38965 4.76323 5.92715 6.22573C4.46153 7.69136 4.0084 9.46323 3.91153 11.4632C3.81465 13.1882 3.83028 14.8976 3.83028 16.6195C3.83028 18.3414 3.81465 20.0539 3.91153 21.7757C4.0084 23.7757 4.46465 25.5507 5.92715 27.0132C7.39278 28.4789 9.16465 28.932 11.1647 29.0289C12.8897 29.1257 14.599 29.1101 16.3209 29.1101C18.0459 29.1101 19.7553 29.1257 21.4771 29.0289C23.4771 28.932 25.2522 28.4757 26.7147 27.0132C28.1803 25.5476 28.6334 23.7757 28.7303 21.7757C28.8303 20.0539 28.8115 18.3445 28.8115 16.6195ZM26.0615 23.9882C25.8334 24.557 25.5584 24.982 25.1178 25.4195C24.6772 25.8601 24.2553 26.1351 23.6865 26.3632C22.0428 27.0164 18.1396 26.8695 16.3178 26.8695C14.4959 26.8695 10.5897 27.0164 8.9459 26.3664C8.37715 26.1382 7.95215 25.8632 7.51465 25.4226C7.07403 24.982 6.79903 24.5601 6.5709 23.9914C5.9209 22.3445 6.06778 18.4414 6.06778 16.6195C6.06778 14.7976 5.9209 10.8914 6.5709 9.24761C6.79903 8.67886 7.07403 8.25386 7.51465 7.81636C7.95528 7.37886 8.37715 7.10073 8.9459 6.87261C10.5897 6.22261 14.4959 6.36948 16.3178 6.36948C18.1396 6.36948 22.0459 6.22261 23.6897 6.87261C24.2584 7.10073 24.6834 7.37573 25.1209 7.81636C25.5615 8.25698 25.8365 8.67886 26.0647 9.24761C26.7147 10.8914 26.5678 14.7976 26.5678 16.6195C26.5678 18.4414 26.7147 22.3445 26.0615 23.9882Z" fill="#1D3547"/>
</svg>
