<svg width="17" height="17" viewBox="0 0 17 17" fill="none" xmlns="http://www.w3.org/2000/svg">
<path d="M14.0679 2.17871H2.56787C2.29131 2.17871 2.06787 2.40215 2.06787 2.67871V14.1787C2.06787 14.4553 2.29131 14.6787 2.56787 14.6787H14.0679C14.3444 14.6787 14.5679 14.4553 14.5679 14.1787V2.67871C14.5679 2.40215 14.3444 2.17871 14.0679 2.17871ZM5.77568 12.8303H3.921V6.86465H5.77568V12.8303ZM4.84912 6.04902C4.63651 6.04902 4.42867 5.98598 4.25188 5.86785C4.0751 5.74973 3.93731 5.58184 3.85595 5.38541C3.77459 5.18898 3.7533 4.97283 3.79478 4.7643C3.83626 4.55577 3.93864 4.36423 4.08898 4.21388C4.23932 4.06354 4.43087 3.96116 4.6394 3.91968C4.84793 3.8782 5.06407 3.89949 5.26051 3.98085C5.45694 4.06222 5.62483 4.2 5.74295 4.37679C5.86107 4.55357 5.92412 4.76141 5.92412 4.97402C5.92256 5.56777 5.44131 6.04902 4.84912 6.04902ZM12.7194 12.8303H10.8663V9.92871C10.8663 9.23652 10.8538 8.34746 9.90225 8.34746C8.93818 8.34746 8.78975 9.10059 8.78975 9.87871V12.8303H6.93818V6.86465H8.71631V7.68027H8.74131C8.98818 7.21152 9.59287 6.71621 10.496 6.71621C12.3741 6.71621 12.7194 7.95215 12.7194 9.5584V12.8303Z" fill="#1A202C"/>
</svg>
